<mxfile host="app.diagrams.net" modified="2022-11-15T22:07:41.082Z" agent="5.0 (Windows NT 10.0; Win64; x64) AppleWebKit/537.36 (KHTML, like Gecko) Chrome/107.0.0.0 Safari/537.36" etag="pyB7u2UYkqT1lhKilZOD" version="20.5.3" type="github">
  <diagram id="C5RBs43oDa-KdzZeNtuy" name="Page-1">
    <mxGraphModel dx="1659" dy="784" grid="1" gridSize="10" guides="1" tooltips="1" connect="1" arrows="1" fold="1" page="1" pageScale="1" pageWidth="827" pageHeight="1169" math="0" shadow="0">
      <root>
        <mxCell id="WIyWlLk6GJQsqaUBKTNV-0" />
        <mxCell id="WIyWlLk6GJQsqaUBKTNV-1" parent="WIyWlLk6GJQsqaUBKTNV-0" />
        <mxCell id="1CWDE1kLBc39JL5JjA1b-0" value="Timer1_OVF_vect" style="ellipse;whiteSpace=wrap;html=1;" vertex="1" parent="WIyWlLk6GJQsqaUBKTNV-1">
          <mxGeometry x="145" y="30" width="190" height="90" as="geometry" />
        </mxCell>
        <mxCell id="1CWDE1kLBc39JL5JjA1b-1" value="" style="endArrow=classic;html=1;rounded=0;exitX=0.5;exitY=1;exitDx=0;exitDy=0;entryX=0.5;entryY=0;entryDx=0;entryDy=0;" edge="1" parent="WIyWlLk6GJQsqaUBKTNV-1" source="1CWDE1kLBc39JL5JjA1b-0" target="1CWDE1kLBc39JL5JjA1b-2">
          <mxGeometry width="50" height="50" relative="1" as="geometry">
            <mxPoint x="210" y="170" as="sourcePoint" />
            <mxPoint x="220" y="160" as="targetPoint" />
          </mxGeometry>
        </mxCell>
        <mxCell id="1CWDE1kLBc39JL5JjA1b-4" style="edgeStyle=orthogonalEdgeStyle;rounded=0;orthogonalLoop=1;jettySize=auto;html=1;exitX=0.5;exitY=1;exitDx=0;exitDy=0;entryX=0.5;entryY=0;entryDx=0;entryDy=0;" edge="1" parent="WIyWlLk6GJQsqaUBKTNV-1" source="1CWDE1kLBc39JL5JjA1b-2" target="1CWDE1kLBc39JL5JjA1b-3">
          <mxGeometry relative="1" as="geometry" />
        </mxCell>
        <mxCell id="1CWDE1kLBc39JL5JjA1b-2" value="number of OVF ++" style="rounded=0;whiteSpace=wrap;html=1;" vertex="1" parent="WIyWlLk6GJQsqaUBKTNV-1">
          <mxGeometry x="155" y="160" width="170" height="50" as="geometry" />
        </mxCell>
        <mxCell id="1CWDE1kLBc39JL5JjA1b-12" style="edgeStyle=orthogonalEdgeStyle;rounded=0;orthogonalLoop=1;jettySize=auto;html=1;exitX=0.5;exitY=1;exitDx=0;exitDy=0;entryX=0.5;entryY=0;entryDx=0;entryDy=0;" edge="1" parent="WIyWlLk6GJQsqaUBKTNV-1" source="1CWDE1kLBc39JL5JjA1b-3" target="1CWDE1kLBc39JL5JjA1b-10">
          <mxGeometry relative="1" as="geometry">
            <Array as="points">
              <mxPoint x="190" y="380" />
              <mxPoint x="190" y="493" />
              <mxPoint x="155" y="493" />
            </Array>
          </mxGeometry>
        </mxCell>
        <mxCell id="1CWDE1kLBc39JL5JjA1b-3" value="number &amp;gt; 60" style="rhombus;whiteSpace=wrap;html=1;" vertex="1" parent="WIyWlLk6GJQsqaUBKTNV-1">
          <mxGeometry x="170" y="250" width="140" height="130" as="geometry" />
        </mxCell>
        <mxCell id="1CWDE1kLBc39JL5JjA1b-14" style="edgeStyle=orthogonalEdgeStyle;rounded=0;orthogonalLoop=1;jettySize=auto;html=1;exitX=0.5;exitY=1;exitDx=0;exitDy=0;entryX=0.5;entryY=0;entryDx=0;entryDy=0;" edge="1" parent="WIyWlLk6GJQsqaUBKTNV-1" source="1CWDE1kLBc39JL5JjA1b-5" target="1CWDE1kLBc39JL5JjA1b-13">
          <mxGeometry relative="1" as="geometry" />
        </mxCell>
        <mxCell id="1CWDE1kLBc39JL5JjA1b-5" value="number = 0" style="rounded=0;whiteSpace=wrap;html=1;" vertex="1" parent="WIyWlLk6GJQsqaUBKTNV-1">
          <mxGeometry x="570" y="260" width="130" height="40" as="geometry" />
        </mxCell>
        <mxCell id="1CWDE1kLBc39JL5JjA1b-8" value="True" style="text;html=1;strokeColor=none;fillColor=none;align=center;verticalAlign=middle;whiteSpace=wrap;rounded=0;" vertex="1" parent="WIyWlLk6GJQsqaUBKTNV-1">
          <mxGeometry x="325" y="310" width="80" height="40" as="geometry" />
        </mxCell>
        <mxCell id="1CWDE1kLBc39JL5JjA1b-9" value="False" style="text;html=1;strokeColor=none;fillColor=none;align=center;verticalAlign=middle;whiteSpace=wrap;rounded=0;" vertex="1" parent="WIyWlLk6GJQsqaUBKTNV-1">
          <mxGeometry x="120" y="350" width="80" height="40" as="geometry" />
        </mxCell>
        <mxCell id="1CWDE1kLBc39JL5JjA1b-10" value="END" style="ellipse;whiteSpace=wrap;html=1;aspect=fixed;" vertex="1" parent="WIyWlLk6GJQsqaUBKTNV-1">
          <mxGeometry x="100" y="605" width="110" height="110" as="geometry" />
        </mxCell>
        <mxCell id="1CWDE1kLBc39JL5JjA1b-29" style="edgeStyle=orthogonalEdgeStyle;rounded=0;orthogonalLoop=1;jettySize=auto;html=1;exitX=0.5;exitY=1;exitDx=0;exitDy=0;entryX=0.5;entryY=0;entryDx=0;entryDy=0;" edge="1" parent="WIyWlLk6GJQsqaUBKTNV-1" source="1CWDE1kLBc39JL5JjA1b-13" target="1CWDE1kLBc39JL5JjA1b-16">
          <mxGeometry relative="1" as="geometry" />
        </mxCell>
        <mxCell id="1CWDE1kLBc39JL5JjA1b-13" value="RTC DS 3231 request time" style="rounded=0;whiteSpace=wrap;html=1;" vertex="1" parent="WIyWlLk6GJQsqaUBKTNV-1">
          <mxGeometry x="555" y="330" width="160" height="40" as="geometry" />
        </mxCell>
        <mxCell id="1CWDE1kLBc39JL5JjA1b-18" style="edgeStyle=orthogonalEdgeStyle;rounded=0;orthogonalLoop=1;jettySize=auto;html=1;exitX=0.5;exitY=1;exitDx=0;exitDy=0;entryX=0.5;entryY=0;entryDx=0;entryDy=0;" edge="1" parent="WIyWlLk6GJQsqaUBKTNV-1" source="1CWDE1kLBc39JL5JjA1b-16" target="1CWDE1kLBc39JL5JjA1b-17">
          <mxGeometry relative="1" as="geometry" />
        </mxCell>
        <mxCell id="1CWDE1kLBc39JL5JjA1b-16" value="DHT12 request temperature and humidity" style="rounded=0;whiteSpace=wrap;html=1;" vertex="1" parent="WIyWlLk6GJQsqaUBKTNV-1">
          <mxGeometry x="517.5" y="400" width="235" height="40" as="geometry" />
        </mxCell>
        <mxCell id="1CWDE1kLBc39JL5JjA1b-20" style="edgeStyle=orthogonalEdgeStyle;rounded=0;orthogonalLoop=1;jettySize=auto;html=1;exitX=0.5;exitY=1;exitDx=0;exitDy=0;entryX=0.5;entryY=0;entryDx=0;entryDy=0;" edge="1" parent="WIyWlLk6GJQsqaUBKTNV-1" source="1CWDE1kLBc39JL5JjA1b-17" target="1CWDE1kLBc39JL5JjA1b-19">
          <mxGeometry relative="1" as="geometry" />
        </mxCell>
        <mxCell id="1CWDE1kLBc39JL5JjA1b-17" value="display time" style="rounded=0;whiteSpace=wrap;html=1;" vertex="1" parent="WIyWlLk6GJQsqaUBKTNV-1">
          <mxGeometry x="570" y="470" width="130" height="40" as="geometry" />
        </mxCell>
        <mxCell id="1CWDE1kLBc39JL5JjA1b-25" style="edgeStyle=orthogonalEdgeStyle;rounded=0;orthogonalLoop=1;jettySize=auto;html=1;exitX=0.5;exitY=1;exitDx=0;exitDy=0;entryX=0.5;entryY=0;entryDx=0;entryDy=0;" edge="1" parent="WIyWlLk6GJQsqaUBKTNV-1" source="1CWDE1kLBc39JL5JjA1b-19" target="1CWDE1kLBc39JL5JjA1b-23">
          <mxGeometry relative="1" as="geometry" />
        </mxCell>
        <mxCell id="1CWDE1kLBc39JL5JjA1b-19" value="display temperature and humidity" style="rounded=0;whiteSpace=wrap;html=1;" vertex="1" parent="WIyWlLk6GJQsqaUBKTNV-1">
          <mxGeometry x="540" y="530" width="190" height="30" as="geometry" />
        </mxCell>
        <mxCell id="1CWDE1kLBc39JL5JjA1b-31" style="edgeStyle=orthogonalEdgeStyle;rounded=0;orthogonalLoop=1;jettySize=auto;html=1;exitX=0.5;exitY=1;exitDx=0;exitDy=0;entryX=0.5;entryY=0;entryDx=0;entryDy=0;" edge="1" parent="WIyWlLk6GJQsqaUBKTNV-1" source="1CWDE1kLBc39JL5JjA1b-23" target="1CWDE1kLBc39JL5JjA1b-30">
          <mxGeometry relative="1" as="geometry" />
        </mxCell>
        <mxCell id="1CWDE1kLBc39JL5JjA1b-33" style="edgeStyle=orthogonalEdgeStyle;rounded=0;orthogonalLoop=1;jettySize=auto;html=1;exitX=0;exitY=0.5;exitDx=0;exitDy=0;entryX=1;entryY=0.5;entryDx=0;entryDy=0;" edge="1" parent="WIyWlLk6GJQsqaUBKTNV-1" source="1CWDE1kLBc39JL5JjA1b-23" target="1CWDE1kLBc39JL5JjA1b-32">
          <mxGeometry relative="1" as="geometry" />
        </mxCell>
        <mxCell id="1CWDE1kLBc39JL5JjA1b-23" value="temperature &amp;gt; treshold" style="rhombus;whiteSpace=wrap;html=1;" vertex="1" parent="WIyWlLk6GJQsqaUBKTNV-1">
          <mxGeometry x="542" y="585" width="186" height="110" as="geometry" />
        </mxCell>
        <mxCell id="1CWDE1kLBc39JL5JjA1b-28" value="" style="endArrow=classic;html=1;rounded=0;entryX=0.5;entryY=0;entryDx=0;entryDy=0;exitX=1;exitY=0.5;exitDx=0;exitDy=0;" edge="1" parent="WIyWlLk6GJQsqaUBKTNV-1" source="1CWDE1kLBc39JL5JjA1b-3" target="1CWDE1kLBc39JL5JjA1b-5">
          <mxGeometry width="50" height="50" relative="1" as="geometry">
            <mxPoint x="370" y="315" as="sourcePoint" />
            <mxPoint x="360" y="200" as="targetPoint" />
            <Array as="points">
              <mxPoint x="370" y="220" />
              <mxPoint x="635" y="220" />
            </Array>
          </mxGeometry>
        </mxCell>
        <mxCell id="1CWDE1kLBc39JL5JjA1b-36" style="edgeStyle=orthogonalEdgeStyle;rounded=0;orthogonalLoop=1;jettySize=auto;html=1;exitX=0.5;exitY=1;exitDx=0;exitDy=0;entryX=1;entryY=1;entryDx=0;entryDy=0;" edge="1" parent="WIyWlLk6GJQsqaUBKTNV-1" source="1CWDE1kLBc39JL5JjA1b-30" target="1CWDE1kLBc39JL5JjA1b-10">
          <mxGeometry relative="1" as="geometry" />
        </mxCell>
        <mxCell id="1CWDE1kLBc39JL5JjA1b-30" value="LED = LOW (off)" style="rounded=0;whiteSpace=wrap;html=1;" vertex="1" parent="WIyWlLk6GJQsqaUBKTNV-1">
          <mxGeometry x="579" y="720" width="112" height="30" as="geometry" />
        </mxCell>
        <mxCell id="1CWDE1kLBc39JL5JjA1b-38" style="edgeStyle=orthogonalEdgeStyle;rounded=0;orthogonalLoop=1;jettySize=auto;html=1;exitX=0;exitY=0.5;exitDx=0;exitDy=0;entryX=1;entryY=0.5;entryDx=0;entryDy=0;" edge="1" parent="WIyWlLk6GJQsqaUBKTNV-1" source="1CWDE1kLBc39JL5JjA1b-32" target="1CWDE1kLBc39JL5JjA1b-10">
          <mxGeometry relative="1" as="geometry">
            <Array as="points">
              <mxPoint x="250" y="640" />
              <mxPoint x="250" y="660" />
            </Array>
          </mxGeometry>
        </mxCell>
        <mxCell id="1CWDE1kLBc39JL5JjA1b-32" value="LED = HIGH (on)" style="rounded=0;whiteSpace=wrap;html=1;" vertex="1" parent="WIyWlLk6GJQsqaUBKTNV-1">
          <mxGeometry x="370" y="625" width="112" height="30" as="geometry" />
        </mxCell>
        <mxCell id="1CWDE1kLBc39JL5JjA1b-39" value="False" style="text;html=1;strokeColor=none;fillColor=none;align=center;verticalAlign=middle;whiteSpace=wrap;rounded=0;" vertex="1" parent="WIyWlLk6GJQsqaUBKTNV-1">
          <mxGeometry x="672.5" y="685" width="80" height="30" as="geometry" />
        </mxCell>
        <mxCell id="1CWDE1kLBc39JL5JjA1b-40" value="True" style="text;html=1;strokeColor=none;fillColor=none;align=center;verticalAlign=middle;whiteSpace=wrap;rounded=0;" vertex="1" parent="WIyWlLk6GJQsqaUBKTNV-1">
          <mxGeometry x="475" y="580" width="80" height="40" as="geometry" />
        </mxCell>
      </root>
    </mxGraphModel>
  </diagram>
</mxfile>
